<svg width="60" height="53" viewBox="0 0 60 53" fill="none" xmlns="http://www.w3.org/2000/svg">
<path d="M14.2483 42.406V9.83813H20.0381V42.406H14.2483Z" fill="#380885"/>
<path d="M27.8539 52.3572L33.0557 40.9133H31.6987L22.9687 19.9703H29.2561L35.5435 35.7567L42.1023 19.9703H48.254L34.0056 52.3572H27.8539Z" fill="#380885"/>
<path d="M1.41354 52.3007C0.632863 52.3007 0 51.6679 0 50.8872V1.41353C0 0.63286 0.632861 0 1.41353 0H10.6015C10.9918 0 11.3083 0.31643 11.3083 0.706767V3.99747C11.3083 4.38781 10.9918 4.70424 10.6015 4.70424H6.13474C5.7444 4.70424 5.42797 5.02067 5.42797 5.41101V46.8445C5.42797 47.2348 5.7444 47.5513 6.13474 47.5513H10.6015C10.9918 47.5513 11.3083 47.8677 11.3083 48.258V51.594C11.3083 51.9843 10.9918 52.3007 10.6015 52.3007H1.41354Z" fill="#380885"/>
<path d="M58.6587 19.7924C59.0502 19.7908 59.3684 20.1077 59.3684 20.4992L59.3684 50.8872C59.3684 51.6679 58.7355 52.3007 57.9549 52.3007L48.7669 52.3007C48.3766 52.3007 48.0601 51.9843 48.0601 51.5939L48.0601 48.3032C48.0601 47.9129 48.3766 47.5965 48.7669 47.5965L53.2337 47.5965C53.624 47.5965 53.9404 47.28 53.9404 46.8897L53.9404 20.5159C53.9404 20.1267 54.2551 19.8107 54.6443 19.8091L58.6587 19.7924Z" fill="#380885"/>
<path d="M58.6587 11.3053C59.0502 11.3069 59.3684 10.99 59.3684 10.5986L59.3684 1.41354C59.3684 0.632863 58.7355 4.76277e-07 57.9549 1.0638e-06L48.7669 7.97846e-06C48.3766 8.27222e-06 48.0601 0.316439 48.0601 0.706775L48.0601 3.99748C48.0601 4.38782 48.3766 4.70425 48.7669 4.70425L53.2337 4.70424C53.624 4.70424 53.9404 5.02067 53.9404 5.41101L53.9404 10.5818C53.9404 10.971 54.2551 11.287 54.6443 11.2886L58.6587 11.3053Z" fill="#FF4343"/>
</svg>
